<svg width="65" height="65" xmlns="http://www.w3.org/2000/svg" xmlns:xlink="http://www.w3.org/1999/xlink"><defs><path id="a" d="M0 65h65V0H0z"/></defs><g transform="matrix(1 0 0 -1 0 65)" fill="none" fill-rule="evenodd"><mask id="b" fill="#fff"><use xlink:href="#a"/></mask><g mask="url(#b)"><path d="M26.81 33.315c.495-1.824-.603-3.7-2.455-4.192l-.446-.118c-1.853-.487-3.754.596-4.249 2.421l-6.706 24.662c-.85 2.965-.265 5.75 2.31 6.502l.81.184c1.851.49 2.934-.763 3.43-2.589l7.306-26.87zM39.339 31.685c-.347-1.941-2.227-3.24-4.198-2.896l-.157.027c-1.97.341-3.285 2.194-2.938 4.135l4.848 27.101c.348 1.943 1.287 3.275 3.259 2.934l.435-.132c5.001-1.186 2.927-7.83 3.598-4.07L39.34 31.686z" fill="#213143" fill-rule="nonzero"/><path d="M20.106 30.626a3.275 3.275 0 0 0-2.313-4.01l-.655-.174a3.27 3.27 0 0 0-4.007 2.313L7.348 50.337a3.275 3.275 0 0 0 2.315 4.01l.652.173a3.273 3.273 0 0 0 4.01-2.313l5.781-21.581z" fill="#4DBA87" fill-rule="nonzero"/><path d="M28.33 34.815a3.383 3.383 0 0 0-2.392-4.145l-.437-.118a3.385 3.385 0 0 0-4.146 2.394l-7.128 26.596a3.385 3.385 0 0 0 2.394 4.146l.437.117a3.388 3.388 0 0 0 4.147-2.394l7.125-26.596zM37.345 32.641a3.385 3.385 0 0 0-3.921-2.746l-.444.08a3.383 3.383 0 0 0-2.747 3.92l4.781 27.115a3.386 3.386 0 0 0 3.922 2.746l.444-.077a3.386 3.386 0 0 0 2.747-3.922L37.345 32.64z" fill="#435466" fill-rule="nonzero"/><path d="M46.197 30.851a3.158 3.158 0 0 0-3.66-2.564l-.89.158a3.16 3.16 0 0 0-2.562 3.66l4.546 25.783a3.16 3.16 0 0 0 3.658 2.564l.892-.157a3.16 3.16 0 0 0 2.562-3.662L46.197 30.85z" fill="#4DBA87" fill-rule="nonzero"/><path d="M52.229 15.601a3.412 3.412 0 0 0-4.66-1.248l-.347.2a3.408 3.408 0 0 0-1.247 4.66l10.127 17.546a3.415 3.415 0 0 0 4.662 1.249l.346-.2a3.41 3.41 0 0 0 1.248-4.66L52.228 15.6z" fill="#FFDC5D" fill-rule="nonzero"/><path d="M10.833 21.667C10.833 16.597 14.669 0 32.499 0c17.83 0 18.959 14.867 21.667 19.258 2.708 4.392.777 12.671-3.611 7.9-4.388-4.772-4.388.59-4.388 3.239 0 2.648-6.71 3.17-7.061 1.702-.236-.988-2.139-1.063-1.847.401.292 1.464-5.315 4.177-6.838 1.966-.41-.595-1.37-1.28-2.07 0-.698 1.28-6.809-.002-6.809-1.966 0-.778-1.324-1.054-1.876-.401-3.228 3.819-7.503 0-7.503 0 .722-2.696-1.33-5.364-1.33-10.432z" fill="#FFDD67" fill-rule="nonzero"/><path d="M47.773 25.251c.042.004.083.015.125.02-.7.123-1.288.793-1.576 1.997-3.462-.448-8.28-1.287-12.016-4.94-4.615-4.512-5.403-9.389-5.365-12.651.03-2.631 1.466-3.875 1.887.021.544 5.047 4.24 14.517 16.945 15.553" fill="#EF9645" fill-rule="nonzero"/></g></g></svg>