<svg width="65" height="65" xmlns="http://www.w3.org/2000/svg" xmlns:xlink="http://www.w3.org/1999/xlink"><defs><path id="a" d="M0 64h64V0H0z"/><path d="M11.33 52.854c-.804-.393-.91-1.415-.698-2.153.21-.736 18-45.648 18-45.648S30.316 1.684 32 1.684c1.86 0 3.368 3.369 3.368 3.369l18.028 45.846s.359 1.418-.958 2.07C49.5 54.418 42.184 57.262 32 57.262c-10.464 0-17.88-3.048-20.67-4.41" id="c"/><path d="M1.224 51.17c-.803-.393-.91-1.415-.697-2.153.21-.736 18-45.649 18-45.649S20.21 0 21.894 0c1.86 0 3.368 3.368 3.368 3.368l18.028 45.846s.359 1.418-.958 2.07c-2.938 1.45-10.254 4.295-20.438 4.295-10.464 0-17.88-3.048-20.67-4.41" id="e"/></defs><g transform="matrix(1 0 0 -1 1 64)" fill="none" fill-rule="evenodd"><mask id="b" fill="#fff"><use xlink:href="#a"/></mask><g mask="url(#b)"><path d="M32 55.579c12.222 0 21.895-6.737 24.756-3.368.332.544.507 1.106.507 1.684 0 3.368-11.311 8.42-25.263 8.42-13.952 0-25.263-5.052-25.263-8.42 0-.578.175-1.14.507-1.684 2.861-3.369 12.534 3.368 24.756 3.368" fill="#F4900C" fill-rule="nonzero"/><path d="M32 57.263c-10.464 0-17.88-3.048-20.67-4.41-.804-.392-.91-1.414-.7-2.152.211-.736 18.002-45.648 18.002-45.648S30.14 1.684 32 1.684c1.86 0 3.368 3.369 3.368 3.369l18.028 45.846s.359 1.416-.958 2.068C49.502 54.419 42.184 57.263 32 57.263" fill="#FFCC4D" fill-rule="nonzero"/></g><mask id="d" fill="#fff"><use xlink:href="#c"/></mask><g mask="url(#d)"><g transform="translate(10.105 1.684)"><mask id="f" fill="#fff"><use xlink:href="#e"/></mask><g mask="url(#f)"><path d="M21.895 8.421a6.738 6.738 0 0 0-6.737-6.737A6.738 6.738 0 0 0 8.42 8.421a6.738 6.738 0 0 0 6.737 6.737 6.738 6.738 0 0 0 6.737-6.737" fill="#4DBA87" fill-rule="nonzero"/><path d="M12.474 21.21a6.737 6.737 0 1 0 0 13.473 6.737 6.737 0 0 0 0-13.472zM26.263 46.158a6.737 6.737 0 1 0-13.473 0 6.737 6.737 0 0 0 13.473 0" fill="#435466" fill-rule="nonzero"/><path d="M41.421 37.737A6.738 6.738 0 0 0 34.684 31a6.738 6.738 0 0 0-6.737 6.737 6.738 6.738 0 0 0 6.737 6.737 6.738 6.738 0 0 0 6.737-6.737" fill="#4DBA87" fill-rule="nonzero"/><path d="M37.053 18.526a6.74 6.74 0 0 0-6.737-6.737 6.74 6.74 0 0 0-6.737 6.737 6.74 6.74 0 0 0 6.737 6.737 6.74 6.74 0 0 0 6.737-6.737" fill="#435466" fill-rule="nonzero"/><path d="M8.421 40.421a6.737 6.737 0 1 0-13.474 0 6.737 6.737 0 0 0 13.474 0" fill="#4DBA87" fill-rule="nonzero"/></g></g></g></g></svg>