<svg width="65" height="65" xmlns="http://www.w3.org/2000/svg"><g transform="translate(2.54 2.54)" fill-rule="nonzero" fill="none"><circle fill="#FFDD67" cx="29.961" cy="29.961" r="29.961"/><path d="M48.836 55.927h-.1.1z" fill="#F46767"/><ellipse fill="#664E27" cx="19.974" cy="24.967" rx="4.993" ry="5.992"/><path d="M52.276 34.273l-2.562 4.373-2.562-4.373H38.62L49.714 53.21 60.81 34.273z" fill="#41B883"/><path d="M52.276 34.273l-2.562 4.373-2.562-4.373h-4.094l6.656 11.362 6.657-11.362z" fill="#34495E"/><g fill="#664E27"><path d="M49.835 28.463c-1.897-4.095-4.694-6.092-7.49-6.092-2.797 0-5.593 1.997-7.49 6.092-.2.4.799 1.198 1.298.799 1.798-1.498 3.995-2.097 6.192-2.097s4.394.599 6.192 2.097c.5.4 1.398-.3 1.298-.8M37.451 48.337c1.598-1.598-1.797-2.996-1.797-5.892 0-2.897 3.395-4.195 1.797-5.893-1.897-1.997-5.992-.499-8.589-3.096 0 2.198 1.798 4.495 5.194 4.495 0 0-2.297.898-2.297 4.494 0 3.595 2.297 4.494 2.297 4.494-3.396 0-5.194 2.297-5.194 4.494 2.597-2.697 6.692-1.198 8.59-3.096"/></g></g></svg>