<svg width="65" height="65" xmlns="http://www.w3.org/2000/svg"><g fill="none" fill-rule="nonzero"><path d="M21.109 30.083c-2.058.393-3.474.868-4.248 1.425-.732.527-1.576 1.677-2.53 3.452 0 0-2.111 11.92 1.222 19.938 3.556 8.56 15.222 8.127 15.222 8.127 12 2.384 16.89.542 21.89-10.728 1.777-4.01-3.334-17.12-3.334-17.12s-25.667 2.166-28.222-5.094z" fill="#FFDD67"/><path d="M40.886 40.378c-.11 2.492 1.89 4.659 4.556 4.767 2.667.109 5-1.842 5.111-4.334l2-35.975c.111-2.493-1.889-4.66-4.556-4.768-2.666-.109-5 1.842-5.11 4.334l-2 35.976" fill="#435466"/><path d="M48.705 39.575L50.462 3.47c0-1.674-.591-2.382-1.47-3.25 2.197.542 3.54 1.954 3.667 4.442L50.79 40.66c-.11 2.493-2.416 4.445-5.052 4.337-1.208-.109-2.306-.542-3.075-1.301.33.108.659.108.989.216 2.635.109 4.942-1.843 5.052-4.336z" fill="#213143"/><g fill="#4DBA87"><path d="M22.065 25.734c0-2.541 2-4.553 4.526-4.553h.106c2.526 0 4.526 2.012 4.526 4.553v7.094c0 2.541-2 4.553-4.526 4.553h-.106c-2.526 0-4.526-2.012-4.526-4.553v-7.094M31.328 25.205c0-2.541 2-4.553 4.526-4.553h.106c2.526 0 4.526 2.012 4.526 4.553v7.094c0 2.541-2 4.553-4.526 4.553h-.106c-2.526 0-4.526-2.012-4.526-4.553v-7.094"/></g><path d="M30.635 31.719v-7.13c0-.796-.192-1.365-.524-2.02 1.107.874 1.964 2.04 1.964 3.572v7.328c0 2.625-2.104 4.594-4.76 4.594h-.112c-1.993 0-3.653-1.094-4.318-2.735.775.547 1.772.985 2.88.985 2.767 0 4.87-2.079 4.87-4.594zM40.414 32.297v-7.328c0-.656-.196-1.748-.529-2.404 1.108.875 1.968 2.623 1.968 4.154v7.328c0 2.625-2.103 4.594-4.76 4.594h-.111c-1.993 0-3.654-1.094-4.318-2.735.775.657 1.771.985 2.879.985 2.767 0 4.871-2.078 4.871-4.594z" fill="#357C5B"/><path d="M45.36 42.547c-6.532-2.297-18.046 1.969-16.496 13.125 0-10.5 9.854-13.016 15.39-13.016.664 0 1.106-.11 1.106-.11" fill="#EF9645"/><path d="M32.518 33.047c-2.879-.219-4.761 5.469-.665 8.094 5.757 3.609 6.643-.547 7.972 1.203 1.328 1.86 2.768 2.406 3.875 4.484.775 1.531 7.418.11 8.525-2.844 1.34-3.485-.045-5.57-2.766-7.585-1.548-1.146-3.6-2.133-5.649-3.68-3.653-2.625-4.76.875-11.292.328z" fill="#EF9645"/><path d="M43.793 33.999c-3.795-2.638-5.023.844-11.944.317-3.014-.211-5.023 5.488-.67 8.126 6.028 3.589 7.033-.527 8.372 1.267 1.451 1.9 2.903 2.427 4.13 4.538.893 1.583-2.455 6.86-2.455 6.86s6.027 5.91 7.925 3.166c3.572-5.171 4.13-8.126 4.465-11.398.558-7.599-3.795-8.654-9.823-12.876" fill="#FFDD67"/><g fill="#EF9645"><path d="M42.606 50.429c.665-1.393 1.109-2.893.776-3.643-1.109-2.143-1.885-2.679-3.326-4.607-1.331-1.822-2.329 2.357-8.316-1.286-2.218-1.393-2.772-3.536-2.329-5.357-1.109 1.821-.786 5.197 1.979 6.922 6.02 3.758 6.76-.532 8.09 1.29 1.553 2.035 2.239 2.288 3.348 4.43.221.536.11 1.393-.222 2.25z"/><path d="M48.593 35.964c7.651 5.679 4.325 16.822.666 21.536-5.766 7.393-11.088 6.321-18.517 4.821 0 0-9.758 1.072-15.08-7.285 3.326 8.785 15.08 8.357 15.08 8.357 7.983 2.357 13.527 2.893 19.625-4.714 3.77-4.822 7.984-18.108-1.774-22.715"/></g><g fill="#435466"><path d="M13.555 26.22c0-2.54 2-4.553 4.526-4.553h.105c2.527 0 4.527 2.012 4.527 4.553v7.094c0 2.542-2 4.553-4.527 4.553h-.105c-2.526 0-4.526-2.011-4.526-4.553V26.22"/></g><path d="M21.46 31.494v-7.129c0-.797-.191-1.365-.523-2.021 1.107.875 1.963 2.04 1.963 3.572v7.328c0 2.625-2.103 4.594-4.76 4.594h-.111c-1.993 0-3.654-1.094-4.318-2.734.775.547 1.771.984 2.879.984 2.767 0 4.87-2.078 4.87-4.594z" fill="#213143"/></g></svg>