<svg width="65" height="65" xmlns="http://www.w3.org/2000/svg"><g fill-rule="nonzero" fill="none"><path d="M17.593 50.21c.433 2.516 2.922 4.157 5.52 3.72 2.597-.438 4.329-2.845 3.788-5.362l-6.494-35.777c-.433-2.517-2.922-4.158-5.52-3.72-2.597.437-4.329 2.844-3.788 5.36l6.494 35.778" fill="#435466"/><path d="M20.715 53.26c2.572-.437 4.287-2.84 3.858-5.354l-6.43-35.737C17.93 10.858 17.072 9.656 16 9c2.143.11 4.072 1.64 4.501 3.825l6.43 35.736c.429 2.514-1.179 4.918-3.75 5.355-1.18.219-2.251 0-3.216-.546.107 0 .429 0 .75-.11" fill="#213143"/><path d="M21.444 30.083c-2.057.393-3.473.868-4.247 1.425-.732.527-1.576 1.677-2.53 3.452 0 0-2.111 11.92 1.222 19.938 3.555 8.56 15.222 8.127 15.222 8.127 12 2.384 16.889.542 21.889-10.728 1.778-4.01-3.333-17.12-3.333-17.12S24 37.342 21.444 30.082z" fill="#FFDD67"/><path d="M41.222 40.378c-.11 2.492 1.89 4.659 4.556 4.767 2.666.109 5-1.842 5.11-4.334l2-35.975C53 2.343 51 .176 48.334.068c-2.666-.109-5 1.842-5.11 4.334l-2 35.976" fill="#435466"/><path d="M49.04 39.575L50.799 3.47c0-1.674-.591-2.382-1.47-3.25 2.197.542 3.54 1.954 3.666 4.442L51.127 40.66c-.11 2.493-2.416 4.445-5.052 4.337-1.208-.109-2.306-.542-3.075-1.301.33.108.659.108.988.216 2.636.109 4.943-1.843 5.053-4.336z" fill="#213143"/><g fill="#4DBA87"><path d="M22.737 25.93c0-2.542 2-4.554 4.526-4.554h.105c2.527 0 4.527 2.012 4.527 4.553v7.095c0 2.54-2 4.552-4.527 4.552h-.105c-2.526 0-4.526-2.011-4.526-4.552v-7.095M32 25.4c0-2.541 2-4.553 4.526-4.553h.106c2.526 0 4.526 2.012 4.526 4.553v7.094c0 2.541-2 4.553-4.526 4.553h-.106C34 37.047 32 35.035 32 32.494V25.4"/></g><path d="M30.971 31.719v-7.13c0-.796-.192-1.365-.524-2.02 1.107.874 1.964 2.04 1.964 3.572v7.328c0 2.625-2.104 4.593-4.761 4.593h-.11c-1.994 0-3.654-1.093-4.319-2.734.775.547 1.772.984 2.879.984 2.768 0 4.871-2.078 4.871-4.593zM40.75 32.297v-7.328c0-.657-.196-1.748-.529-2.404 1.108.875 1.968 2.622 1.968 4.154v7.328c0 2.625-2.103 4.594-4.76 4.594h-.111c-1.993 0-3.654-1.094-4.318-2.735.775.657 1.771.985 2.879.985 2.767 0 4.871-2.078 4.871-4.594z" fill="#357C5B"/><path d="M45.696 42.547C39.164 40.25 27.65 44.516 29.2 55.672c0-10.5 9.854-13.016 15.39-13.016.664 0 1.106-.11 1.106-.11" fill="#EF9645"/><path d="M32.854 33.047c-2.879-.219-4.761 5.469-.665 8.094 5.757 3.609 6.643-.547 7.972 1.203 1.328 1.86 2.768 2.406 3.875 4.484.775 1.531 7.418.11 8.525-2.844 1.34-3.485-.045-5.57-2.766-7.585-1.548-1.146-3.6-2.133-5.649-3.68-3.653-2.625-4.76.875-11.292.328z" fill="#EF9645"/><path d="M44.129 33.999c-3.795-2.638-5.023.844-11.944.317-3.014-.211-5.023 5.488-.67 8.126 6.028 3.589 7.033-.527 8.372 1.267 1.451 1.9 2.902 2.427 4.13 4.538.893 1.583-2.455 6.86-2.455 6.86s6.027 5.91 7.925 3.166c3.572-5.171 4.13-8.126 4.465-11.398.558-7.599-3.795-8.654-9.823-12.876" fill="#FFDD67"/><g fill="#EF9645"><path d="M42.942 50.429c.665-1.393 1.109-2.893.776-3.643-1.109-2.143-1.885-2.679-3.326-4.607-1.331-1.822-2.329 2.357-8.316-1.286-2.218-1.393-2.772-3.536-2.329-5.357-1.109 1.821-.786 5.197 1.979 6.922 6.02 3.758 6.76-.532 8.09 1.29 1.553 2.035 2.239 2.288 3.348 4.43.221.536.11 1.393-.222 2.25z"/><path d="M48.93 35.964c7.65 5.679 4.324 16.822.665 21.536-5.766 7.393-11.088 6.321-18.517 4.821 0 0-9.758 1.072-15.08-7.285 3.326 8.785 15.08 8.357 15.08 8.357 7.983 2.357 13.527 2.893 19.625-4.714 3.77-4.822 7.984-18.108-1.774-22.715"/></g></g></svg>