<svg width="65" height="65" xmlns="http://www.w3.org/2000/svg"><g fill-rule="nonzero" fill="none"><path d="M38.11 32.53c-.547 2.359.987 4.825 3.507 5.361 2.52.537 5.04-.965 5.588-3.324L53.89 6.47c.548-2.36-.986-4.826-3.506-5.362-2.52-.537-5.04.965-5.588 3.324L38.11 32.53" fill="#435466"/><path d="M45.41 33.978l6.627-28.4c.325-1.302.03-3.183-.73-4.159 2.281.976 3.042 3.196 2.576 5.676l-6.627 28.4c-.543 2.385-3.041 4.011-5.54 3.36-1.195-.216-2.064-.866-2.716-1.734.109 0 .435.109.76.217 2.608.542 4.998-.975 5.65-3.36z" fill="#4DBA87"/><path d="M46.605 35.208s-9.592-9.316-26.572-4.658c0 0-10.033 1.733-9.482 6.717 0 0-.33 12.35 3.97 19.716 6.505 10.942 31.533 12.675 37.817-7.583 1.324-4.008.331-14.842-5.733-14.192" fill="#FFDD67"/><path d="M29.515 34.017c.441 2.491 2.977 4.008 5.513 3.575 2.536-.434 4.3-2.817 3.86-5.309l-5.514-28.6c-.44-2.491-2.977-4.008-5.512-3.575-2.536.434-4.3 2.817-3.75 5.309l5.403 28.6" fill="#4DBA87"/><path d="M32.886 37.26c2.59-.436 4.21-2.84 3.778-5.354L31.267 3.06A5.032 5.032 0 0 0 29 0c2.375 0 4.102 1.53 4.533 3.715l5.397 28.847c.432 2.513-1.187 4.917-3.67 5.354a4.696 4.696 0 0 1-3.238-.546c.216 0 .54 0 .864-.11" fill="#435466"/><g fill="#FFDD67"><path d="M10.105 33.062c-.331-2.52 1.548-4.82 4.2-5.148h.11c2.543-.219 4.974 1.534 5.196 4.162l.773 7.12c.332 2.518-1.547 4.818-4.2 5.147h-.11c-2.653.219-4.974-1.533-5.195-4.162l-.774-7.12"/><path d="M19.058 27.914c-.332-2.519 1.547-4.819 4.2-5.147h.11c2.653-.22 4.974 1.533 5.195 4.162l.774 7.119c.331 2.519-1.548 4.819-4.2 5.147h-.11c-2.653.22-4.974-1.533-5.195-4.162l-.774-7.119"/></g><path d="M18.646 37.187l-.776-6.934c-.11-.64-.443-1.386-.775-2.026 1.662.746 2.216 2.026 2.437 3.52l.776 6.933c.333 2.453-1.551 4.693-4.1 4.907-1.884.213-3.657-.747-4.543-2.134.665.534 1.662.854 2.77.747 2.66-.32 4.433-2.453 4.21-5.013zM23.3 37.187c2.66-.32 4.543-2.454 4.21-4.907l-.775-6.933a6.45 6.45 0 0 0-.776-2.027c1.552.853 2.217 2.133 2.438 3.627l.776 6.933c.332 2.453-1.551 4.587-4.21 4.907h-.112c-1.883.213-3.656-.747-4.543-2.134a5.56 5.56 0 0 0 2.992.534M42.47 41.987c-5.319-2.454-17.397 1.813-14.96 12.48 0-11.094 10.417-13.014 14.96-12.48" fill="#EF9645"/><path d="M40.476 31c-3.879-2.24-4.544 1.28-11.081 1.493-2.881.107-4.1 5.76.221 7.787 5.984 2.88 6.427-1.173 7.979.427 1.55 1.706 2.991 2.026 4.321 3.946.998 1.387 8.422-.746 9.198-3.626 1.44-5.654-4.655-6.507-10.638-10.027" fill="#EBA352"/><path d="M41.029 31.768c-3.926-2.317-4.69 1.325-11.342 1.545-2.945.11-4.254 6.18.218 8.387 6.107 3.09 6.652-1.324 8.07.442 1.636 1.765 3.054 2.207 4.472 4.304.981 1.544-1.636 7.283-1.636 7.283s7.525 5.407 9.052 2.317c2.835-5.738 2.072-10.152 1.963-13.463-.219-7.835-4.58-7.062-10.797-10.815" fill="#FFDD67"/><g fill="#EF9645"><path d="M48.463 35.964c4.126 1.929 3.908 12.536.868 17.679-7.708 12.75-24.645 12.536-32.571 5.678 7.383 7.822 25.406 8.572 33.766-4.607 3.365-5.25 4.451-17.464-2.063-18.75"/><path d="M41.514 46.571c.326.429.217 1.286.109 2.25.434-1.5.76-3 .326-3.642-1.303-2.036-2.063-2.465-3.692-4.179-1.52-1.607-1.954 2.571-8.034-.429-2.28-1.071-3.04-3.214-2.823-5.035-.869 1.928-.434 4.928 2.497 6.428 6.08 3 6.623-1.285 8.034.429 1.52 1.714 2.28 2.143 3.583 4.178"/></g></g></svg>