<svg width="65" height="65" xmlns="http://www.w3.org/2000/svg"><g fill-rule="nonzero" fill="none"><path d="M32.8 27.1s-4.4.9-.8-6.6c2.6-5.4 2.3-11.7 0-15C28.2.2 20.9 1.9 21.7 5c2.6 10.5-3.3 13.7-6.3 20.3-3.1 6.7-2.8 16.3-1.4 24.8.9 5.3 3.2 11.9 11.5 11.9H37l-4.2-34.9" fill="#FFDD67"/><path d="M26.8 60.5c-8.3 0-10.1-6.6-11-11.9-1.4-8.5-1.6-15.3 1.1-22.2 3-7.5 6.1-7.7 6.1-22.5 0-.7.4-1.2.8-1.6-1.4.5-2.2 1.3-2.2 2.5 0 11.1-3.1 13.8-6.1 20.5-3.2 6.7-2.9 16.3-1.5 24.8.9 5.3 3.2 11.9 11.5 11.9H37v-1.5H26.8" fill="#EBA352"/><path d="M47 35.8H32.8c-5 0-5-8.7 0-8.7H47c5 0 5 8.7 0 8.7" fill="#4DBA87"/><path d="M33.9 34.4c-3.4 0-4.4-4-3.3-6.5-2.7 2.1-1.9 8 2.1 8H47c1.6 0 2.7-.9 3.3-2.2-.6.4-1.3.7-2.2.7H33.9z" fill="#357C5B"/><path d="M48.5 44.6h-17c-6 0-6-8.7 0-8.7h17.1c5.9 0 5.9 8.7-.1 8.7" fill="#435466"/><path d="M49.9 43.1H32.8c-4 0-5.3-4-3.9-6.5-3.2 2.1-2.3 8 2.6 8h17.1c1.9 0 3.2-.9 3.9-2.2-.7.4-1.6.7-2.6.7" fill="#213143"/><path d="M46.9 53.3H32.5c-5 0-5-8.7 0-8.7h14.4c5.1 0 5.1 8.7 0 8.7" fill="#435466"/><path d="M48.1 51.8H33.6c-3.4 0-4.5-4-3.3-6.6-2.7 2.1-2 8 2.2 8h14.4c1.6 0 2.7-.9 3.3-2.2-.5.6-1.3.8-2.1.8" fill="#213143"/><path d="M45.4 62h-9.3c-5.4 0-5.4-8.7 0-8.7h9.3c5.4 0 5.4 8.7 0 8.7" fill="#4DBA87"/><path d="M46.6 60.6h-9.3c-3.6 0-4.8-4-3.5-6.6-2.9 2.1-2.1 8 2.3 8h9.3c1.8 0 2.9-.9 3.5-2.2-.6.5-1.4.8-2.3.8" fill="#357C5B"/></g></svg>